<?xml version="1.0" encoding="UTF-8" standalone="no"?>
<!DOCTYPE svg PUBLIC "-//W3C//DTD SVG 1.1//EN" "http://www.w3.org/Graphics/SVG/1.1/DTD/svg11.dtd">
<svg width="100%" height="100%" viewBox="0 0 250 330" version="1.1" xmlns="http://www.w3.org/2000/svg" xmlns:xlink="http://www.w3.org/1999/xlink" xml:space="preserve" xmlns:serif="http://www.serif.com/" style="fill-rule:evenodd;clip-rule:evenodd;stroke-linejoin:round;stroke-miterlimit:2;">
    <g transform="matrix(1,0,0,1,-87.2071,-23.6038)">
        <clipPath id="_clip1">
            <path d="M103.979,260.901C105.119,262.447 106.35,263.947 107.696,265.375C119.486,277.862 138.655,270.235 153.309,256.508C156.397,264.225 169.955,268.376 179.724,261.809C186.934,256.976 193.479,249.322 197.17,240.644C209.013,212.813 197.969,174.597 177.533,154.528C151.683,129.158 115.696,138.878 89.811,159.1C61.985,180.849 42.744,216.783 70.785,245.791C78.722,254.029 91.508,262.447 103.979,260.901ZM167.378,218.571C164.622,226.387 158.92,240.769 150.983,249.106C135.638,265.187 114.179,270.244 105.075,242.665C100.63,229.19 103.387,210.774 109.735,197.11C126.489,211.465 146.359,216.568 167.378,218.571Z"/>
        </clipPath>
        <g clip-path="url(#_clip1)">
            <g transform="matrix(1,0,0,1,0,37.0047)">
                <clipPath id="_clip2">
                    <rect x="80" y="-37.005" width="305" height="357" clip-rule="nonzero"/>
                </clipPath>
                <g clip-path="url(#_clip2)">
                    <rect x="52.057" y="97.304" width="154.975" height="142.388"/>
                </g>
            </g>
        </g>
    </g>
    <g transform="matrix(1,0,0,1,-87.2071,-23.6038)">
        <clipPath id="_clip3">
            <path d="M101.025,248.828C75.489,244.884 39.323,294.859 49.11,317.866C53.231,327.155 58.403,333.83 58.071,326.571C54.973,300.519 71.09,264.118 102.022,255.224C105.524,253.625 104.033,249.762 101.025,248.828Z"/>
        </clipPath>
        <g clip-path="url(#_clip3)">
            <g transform="matrix(1,0,0,1,0,204.255)">
                <clipPath id="_clip4">
                    <rect x="80" y="-204.255" width="305" height="357" clip-rule="nonzero"/>
                </clipPath>
                <g clip-path="url(#_clip4)">
                    <rect x="42.471" y="39.352" width="66.58" height="91.041"/>
                </g>
            </g>
        </g>
    </g>
    <g transform="matrix(1,0,0,1,-87.2071,-23.6038)">
        <clipPath id="_clip5">
            <path d="M327.99,285.669C318.114,252.116 296.125,208.222 261.889,196.014C232.726,185.62 199.998,197.81 185.264,223.153C183.378,226.387 181.771,229.854 180.532,233.511C177.426,242.665 173.69,252.08 173.376,262.105C169.039,281.33 183.127,340.217 196.981,359.082C198.175,360.699 249.66,360.807 246.005,343.469C244.964,338.492 251.743,315.521 221.538,315.934C212.667,298.497 201.884,278.707 197.358,269.499C202.458,267.864 207.343,265.905 211.491,264.387C223.307,260.084 240.537,254.649 248.95,243.977C256.205,261.674 276.048,296.8 272.78,332.716C284.03,339.238 328.502,287.403 327.99,285.669Z"/>
        </clipPath>
        <g clip-path="url(#_clip5)">
            <g transform="matrix(1,0,0,1,0,178.067)">
                <clipPath id="_clip6">
                    <rect x="80" y="-178.067" width="305" height="357" clip-rule="nonzero"/>
                </clipPath>
                <g clip-path="url(#_clip6)">
                    <rect x="167.577" y="9.235" width="165.418" height="177.464"/>
                </g>
            </g>
        </g>
    </g>
    <g transform="matrix(1,0,0,1,-87.2071,215.689)">
        <clipPath id="_clip7">
            <path d="M269.233,54.201C252.299,66.158 237.44,75.07 216.573,65.538C210.566,62.798 204.119,70.165 210.701,74.073C232.187,86.847 265.795,84.682 278.706,60.418C282.001,54.219 273.804,50.967 269.233,54.201Z"/>
        </clipPath>
        <g clip-path="url(#_clip7)">
            <rect x="202.931" y="47.93" width="81.536" height="38.847"/>
        </g>
    </g>
    <g transform="matrix(1,0,0,1,-87.2071,-96.7327)">
        <clipPath id="_clip8">
            <path d="M254.23,174.726C230.894,159.068 202.413,161.161 183.755,175.813C168.923,187.464 166.929,201.919 161.892,219.365C161.102,222.105 165.573,223.201 166.893,221.099C179.67,206.069 176.797,183.844 204.101,175.84C214.346,172.839 227.006,174.42 244.353,183.997C256.142,195.577 263.334,210.92 267.905,226.57C273.058,244.231 268.093,259.988 269.754,277.416C270.302,283.247 279.155,285.582 282.297,280.336C303.335,245.309 280.403,188.551 254.23,174.726Z"/>
        </clipPath>
        <g clip-path="url(#_clip8)">
            <rect x="156.799" y="158.872" width="138.726" height="129.385"/>
        </g>
    </g>
    <g transform="matrix(1,0,0,1,-87.2071,-121.374)">
        <clipPath id="_clip9">
            <path d="M259.285,226.084C229.763,231.51 202.934,237.916 175.387,227.046C171.85,225.653 165.385,229.83 169.955,232.939C198.059,252.074 230.463,245.776 263.756,240.287C274.513,238.518 269.35,224.234 259.285,226.084Z"/>
        </clipPath>
        <g clip-path="url(#_clip9)">
            <rect x="163.378" y="220.919" width="111.353" height="29.932"/>
        </g>
    </g>
    <g transform="matrix(1,0,0,1,-87.2071,-95.4113)">
        <clipPath id="_clip10">
            <path d="M232.483,166.891C231.262,168.221 230.131,169.64 228.946,171.015C227.132,168.409 222.714,167.583 219.464,168.805C204.685,161.618 169.425,200.337 168.626,202.789C168.42,203.616 165.053,217.298 165.169,217.998C161.497,223.676 176.896,237.376 181.268,234.286C182.561,233.369 185.937,211.458 187.14,210.506C187.123,210.587 187.114,210.668 187.087,210.749C185.434,216.714 204.012,215.205 208.609,213.102C231.029,204.047 232.977,206.643 241.453,213.615C249.085,219.903 242.567,238.625 242.629,261.128C242.611,265.045 246.086,266.995 249.552,266.986C256.097,271.486 278.58,297.916 274.486,259.341C276.246,252.001 276.048,223.2 265.543,198.217C257.821,179.837 237.853,161.061 232.483,166.891Z"/>
        </clipPath>
        <g clip-path="url(#_clip10)">
            <rect x="159.609" y="160.809" width="120.712" height="124.189"/>
        </g>
    </g>
    <g transform="matrix(1,0,0,1,-87.2071,166.691)">
        <clipPath id="_clip11">
            <path d="M222.616,89.14C218.459,89.14 218.459,94.566 222.616,94.566C226.773,94.566 226.773,89.14 222.616,89.14Z"/>
        </clipPath>
        <g clip-path="url(#_clip11)">
            <rect x="214.498" y="84.14" width="16.236" height="15.426"/>
        </g>
    </g>
    <g transform="matrix(1,0,0,1,-87.2071,148.724)">
        <clipPath id="_clip12">
            <path d="M240.573,98.006C236.245,98.006 236.245,103.666 240.573,103.666C244.901,103.666 244.901,98.006 240.573,98.006Z"/>
        </clipPath>
        <g clip-path="url(#_clip12)">
            <rect x="232.327" y="93.006" width="16.492" height="15.66"/>
        </g>
    </g>
    <g transform="matrix(1,0,0,1,-87.2071,181.987)">
        <clipPath id="_clip13">
            <path d="M246.876,77.76C242.414,84.588 240.762,90.787 227.096,83.456C224.708,82.396 220.802,84.983 223.513,87.247C228.416,91.335 233.318,92.943 239.621,91.829C245.485,90.787 251.267,85.423 251.931,79.27C252.272,76.179 248.627,75.065 246.876,77.76Z"/>
        </clipPath>
        <g clip-path="url(#_clip13)">
            <rect x="217.592" y="71.237" width="39.361" height="25.936"/>
        </g>
    </g>
    <g transform="matrix(1,0,0,1,-87.2071,47.1386)">
        <clipPath id="_clip14">
            <path d="M124.819,147.613C120.59,146.625 118.713,154.656 122.942,155.644C127.171,156.633 129.039,148.601 124.819,147.613Z"/>
        </clipPath>
        <g clip-path="url(#_clip14)">
            <rect x="115.558" y="142.529" width="16.642" height="18.199"/>
        </g>
    </g>
    <g transform="matrix(1,0,0,1,-87.2071,91.278)">
        <clipPath id="_clip15">
            <path d="M131.535,128.412C128.446,130.397 124.002,129.643 122.449,126.04C119.818,123.489 115.885,125.834 118.695,129.391C122.736,134.494 131.346,136.201 135.944,130.972C138.233,128.367 134.893,126.265 131.535,128.412Z"/>
        </clipPath>
        <g clip-path="url(#_clip15)">
            <rect x="112.726" y="119.966" width="28.973" height="19.186"/>
        </g>
    </g>
    <g transform="matrix(1,0,0,1,-87.2071,-26.2314)">
        <clipPath id="_clip16">
            <path d="M213.285,186.94C209.866,189.317 204.947,188.414 203.228,184.1C200.316,181.045 195.963,183.853 199.073,188.113C203.545,194.223 213.076,196.267 218.165,190.006C220.699,186.886 217.002,184.369 213.285,186.94Z"/>
        </clipPath>
        <g clip-path="url(#_clip16)">
            <rect x="193" y="177.814" width="31" height="21"/>
        </g>
    </g>
    <g transform="matrix(1,0,0,1,-87.2071,139.494)">
        <clipPath id="_clip17">
            <path d="M162.808,92.341C161.766,89.637 157.87,90.006 156.72,92.341C150.606,122.679 129.434,105.035 123.75,105.727C122.799,105.861 122.709,106.32 121.775,106.535C103.072,113.183 100.325,114.144 95.368,90.796C91.544,86.798 83.84,92.144 88.23,96.797C91.463,109.653 95.764,126.407 124.424,115.654C147.185,132.596 170.97,109.033 162.808,92.341Z"/>
        </clipPath>
        <g clip-path="url(#_clip17)">
            <rect x="81.916" y="84.393" width="87.532" height="42.117"/>
        </g>
    </g>
    <g transform="matrix(1,0,0,1,-87.2071,304.435)">
        <clipPath id="_clip18">
            <path d="M126.839,22.626C126.273,22.626 126.273,23.335 126.839,23.335C127.396,23.335 127.396,22.626 126.839,22.626Z"/>
        </clipPath>
        <g clip-path="url(#_clip18)">
            <rect x="121.415" y="17.626" width="10.842" height="10.71"/>
        </g>
    </g>
    <g transform="matrix(1,0,0,1,-87.2071,-23.6038)">
        <clipPath id="_clip19">
            <path d="M86.731,308.137C83.768,316.599 80.886,336.848 81.083,345.876C81.164,349.407 86.48,350.054 88.275,347.485C93.725,339.696 92.693,318.989 95.108,310.059C96.437,305.19 88.248,303.771 86.731,308.137Z"/>
        </clipPath>
        <g clip-path="url(#_clip19)">
            <g transform="matrix(1,0,0,1,0,280.569)">
                <clipPath id="_clip20">
                    <rect x="80" y="-280.569" width="305" height="357" clip-rule="nonzero"/>
                </clipPath>
                <g clip-path="url(#_clip20)">
                    <rect x="76.074" y="19.954" width="24.18" height="53.523"/>
                </g>
            </g>
        </g>
    </g>
    <g transform="matrix(1,0,0,1,-87.2071,-23.6038)">
        <clipPath id="_clip21">
            <path d="M182.184,356.046C178.458,340.927 171.499,327.595 170.162,311.119C169.569,303.735 161.569,303.402 161.318,311.119C160.752,329.293 166.274,349.155 174.444,361.894C177.012,365.892 183.773,362.514 182.184,356.046Z"/>
        </clipPath>
        <g clip-path="url(#_clip21)">
            <g transform="matrix(1,0,0,1,0,295.072)">
                <clipPath id="_clip22">
                    <rect x="80" y="-295.072" width="305" height="357" clip-rule="nonzero"/>
                </clipPath>
                <g clip-path="url(#_clip22)">
                    <rect x="156.278" y="5.384" width="31.146" height="68.161"/>
                </g>
            </g>
        </g>
    </g>
    <g transform="matrix(1,0,0,1,-87.2071,61.8356)">
        <clipPath id="_clip23">
            <path d="M142.696,140.265C138.476,139.277 136.599,147.308 140.819,148.296C145.048,149.284 146.925,141.253 142.696,140.265Z"/>
        </clipPath>
        <g clip-path="url(#_clip23)">
            <rect x="133.441" y="135.181" width="16.64" height="18.199"/>
        </g>
    </g>
    <g transform="matrix(1,0,0,1,-87.2071,44.8032)">
        <clipPath id="_clip24">
            <path d="M146.754,153.371C146.925,151.377 143.944,151.395 144.554,152.599C144.913,153.299 146.79,154.476 146.754,153.371Z"/>
        </clipPath>
        <g clip-path="url(#_clip24)">
            <rect x="139.472" y="146.769" width="12.29" height="12.055"/>
        </g>
    </g>
    <g transform="matrix(1,0,0,1,-87.2071,30.045)">
        <clipPath id="_clip25">
            <path d="M124.496,159.73C125.986,158.382 127.764,160.781 126.435,161.015C125.663,161.149 123.58,160.368 124.496,159.73Z"/>
        </clipPath>
        <g clip-path="url(#_clip25)">
            <rect x="119.267" y="154.321" width="12.635" height="11.708"/>
        </g>
    </g>
    <g transform="matrix(1,0,0,1,-87.2071,64.0417)">
        <clipPath id="_clip26">
            <path d="M129.856,141.643C129.2,140.538 130.161,139.182 131.445,139.298C133.456,139.487 134.947,140.924 135.144,142.946C135.378,145.111 133.079,146.952 131.149,147.06C130.161,147.123 129.326,146.27 129.551,145.29C129.685,144.724 130.027,144.293 130.341,143.844C131.409,142.326 130.601,142.892 129.856,141.643Z"/>
        </clipPath>
        <g clip-path="url(#_clip26)">
            <rect x="124.514" y="134.291" width="15.647" height="17.772"/>
        </g>
    </g>
    <g transform="matrix(1,0,0,1,-87.2071,168.087)">
        <clipPath id="_clip27">
            <path d="M234.701,89.559C235.24,88.66 234.737,87.897 233.695,87.995C232.043,88.148 230.84,89.325 230.67,90.969C230.49,92.73 232.358,94.23 233.929,94.32C234.737,94.374 235.419,93.673 235.24,92.882C235.123,92.415 234.225,92.128 233.965,91.759C233.094,90.52 234.099,90.583 234.701,89.559Z"/>
        </clipPath>
        <g clip-path="url(#_clip27)">
            <rect x="225.658" y="82.987" width="14.611" height="16.336"/>
        </g>
    </g>
    <g transform="matrix(1,0,0,1,-87.2071,-72.3871)">
        <clipPath id="_clip28">
            <path d="M221.134,206.168C215.63,204.883 213.197,215.331 218.692,216.616C224.187,217.9 226.62,207.443 221.134,206.168Z"/>
        </clipPath>
        <g clip-path="url(#_clip28)">
            <rect x="210.592" y="201.059" width="18.636" height="20.666"/>
        </g>
    </g>
    <g transform="matrix(1,0,0,1,-87.2071,-76.8788)">
        <clipPath id="_clip29">
            <path d="M201.498,208.548C196.137,207.3 193.767,217.478 199.118,218.727C204.469,219.975 206.849,209.797 201.498,208.548Z"/>
        </clipPath>
        <g clip-path="url(#_clip29)">
            <rect x="191.1" y="203.442" width="18.414" height="20.39"/>
        </g>
    </g>
    <g transform="matrix(1,0,0,1,-87.2071,-68.8623)">
        <clipPath id="_clip30">
            <path d="M210.566,208.042C211.105,207.135 210.611,206.371 209.561,206.47C207.917,206.623 206.714,207.8 206.544,209.444C206.364,211.213 208.232,212.705 209.803,212.794C210.611,212.848 211.293,212.148 211.105,211.357C210.997,210.899 210.099,210.602 209.839,210.243C208.959,208.994 209.965,209.057 210.566,208.042Z"/>
        </clipPath>
        <g clip-path="url(#_clip30)">
            <rect x="201.532" y="201.461" width="14.605" height="16.336"/>
        </g>
    </g>
    <g transform="matrix(1,0,0,1,-87.2071,-93.0567)">
        <clipPath id="_clip31">
            <path d="M223.343,222.696C223.621,219.345 218.638,219.381 219.671,221.393C220.263,222.561 223.406,224.538 223.343,222.696Z"/>
        </clipPath>
        <g clip-path="url(#_clip31)">
            <rect x="214.529" y="215.005" width="13.825" height="13.443"/>
        </g>
    </g>
    <g transform="matrix(1,0,0,1,-87.2071,-94.566)">
        <clipPath id="_clip32">
            <path d="M197.233,223.505C196.927,219.965 202.207,219.992 201.121,222.13C200.492,223.361 197.17,225.463 197.233,223.505Z"/>
        </clipPath>
        <g clip-path="url(#_clip32)">
            <rect x="192.22" y="215.658" width="14.048" height="13.646"/>
        </g>
    </g>
    <g transform="matrix(1,0,0,1,-87.2071,137.629)">
        <clipPath id="_clip33">
            <path d="M239.576,105.84C237.763,104.205 235.581,107.107 237.206,107.403C238.14,107.574 240.672,106.613 239.576,105.84Z"/>
        </clipPath>
        <g clip-path="url(#_clip33)">
            <rect x="231.636" y="100.344" width="13.211" height="12.08"/>
        </g>
    </g>
    <g transform="matrix(1,0,0,1,-87.2071,153.978)">
        <clipPath id="_clip34">
            <path d="M217.543,98.978C217.201,96.553 220.829,96.373 220.155,97.882C219.778,98.754 217.57,100.326 217.543,98.978Z"/>
        </clipPath>
        <g clip-path="url(#_clip34)">
            <rect x="212.52" y="91.916" width="12.719" height="12.587"/>
        </g>
    </g>
    <g transform="matrix(1,0,0,1,-87.2071,260.387)">
        <clipPath id="_clip35">
            <path d="M251.5,51.716C249.319,46.03 245.26,41.026 244.479,34.827C244.138,32.042 239.46,31.926 239.316,34.827C238.975,41.664 241.372,52.219 246.14,57.007C247.63,58.508 252.434,54.151 251.5,51.716Z"/>
        </clipPath>
        <g clip-path="url(#_clip35)">
            <rect x="234.284" y="27.695" width="22.336" height="34.62"/>
        </g>
    </g>
    <g transform="matrix(1,0,0,1,-87.2071,-229.604)">
        <clipPath id="_clip36">
            <path d="M239.024,299C239.748,298.996 241.062,298.25 242.077,297.346C243.789,295.821 245.2,294.241 247.037,290.399C248.961,286.32 247.796,282.861 245.361,281.507C243.073,280.239 240.082,281.433 239.024,284.166L238.976,284.166C237.919,281.432 234.927,280.239 232.639,281.507C230.204,282.861 229.039,286.319 230.963,290.399C232.799,294.242 234.211,295.822 235.923,297.346C236.938,298.25 238.252,298.996 238.976,299L239.024,299Z" clip-rule="nonzero"/>
        </clipPath>
        <g clip-path="url(#_clip36)">
            <rect x="225" y="276" width="28" height="28" style="fill:rgb(246,220,30);"/>
        </g>
    </g>
    <g transform="matrix(1,0,0,1,-87.2071,-254.604)">
        <clipPath id="_clip37">
            <path d="M129.559,325C131.371,324.99 134.655,323.124 137.193,320.866C141.473,317.053 145,313.103 149.592,303.499C154.403,293.3 151.49,284.653 145.402,281.268C139.682,278.097 132.204,281.082 129.559,287.916L129.44,287.916C126.797,281.081 119.317,278.097 113.599,281.268C107.511,284.653 104.597,293.298 109.409,303.499C113.999,313.105 117.528,317.055 121.808,320.866C124.345,323.124 127.63,324.99 129.441,325L129.559,325Z" clip-rule="nonzero"/>
        </clipPath>
        <g clip-path="url(#_clip37)">
            <rect x="102" y="275" width="55" height="55" style="fill:rgb(246,220,30);"/>
        </g>
    </g>
    <g transform="matrix(1,0,0,1,-87.2071,-305.604)">
        <clipPath id="_clip38">
            <path d="M265.037,342C266.164,341.993 268.208,340.833 269.787,339.428C272.45,337.055 274.645,334.598 277.502,328.621C280.495,322.275 278.683,316.895 274.895,314.789C271.336,312.816 266.683,314.673 265.037,318.925L264.962,318.925C263.318,314.673 258.664,312.816 255.106,314.789C251.318,316.895 249.504,322.274 252.499,328.621C255.355,334.599 257.551,337.056 260.214,339.428C261.793,340.833 263.836,341.993 264.963,342L265.037,342Z" clip-rule="nonzero"/>
        </clipPath>
        <g clip-path="url(#_clip38)">
            <rect x="246" y="309" width="38" height="38" style="fill:rgb(246,220,30);"/>
        </g>
    </g>
    <g transform="matrix(1,0,0,1,-87.2071,-176.604)">
        <clipPath id="_clip39">
            <path d="M315.544,280C316.872,279.992 319.281,278.625 321.141,276.968C324.28,274.172 326.867,271.276 330.234,264.232C333.762,256.753 331.626,250.412 327.161,247.93C322.967,245.604 317.483,247.793 315.544,252.805L315.456,252.805C313.517,247.793 308.032,245.604 303.839,247.93C299.375,250.412 297.237,256.752 300.766,264.232C304.133,271.277 306.721,274.173 309.859,276.968C311.72,278.625 314.128,279.992 315.457,280L315.544,280Z" clip-rule="nonzero"/>
        </clipPath>
        <g clip-path="url(#_clip39)">
            <rect x="294" y="242" width="43" height="43" style="fill:rgb(246,220,30);"/>
        </g>
    </g>
</svg>
