<?xml version="1.0" encoding="UTF-8" standalone="no"?>
<!DOCTYPE svg PUBLIC "-//W3C//DTD SVG 1.1//EN" "http://www.w3.org/Graphics/SVG/1.1/DTD/svg11.dtd">
<svg width="100%" height="100%" viewBox="0 0 100 100" version="1.1" xmlns="http://www.w3.org/2000/svg" xmlns:xlink="http://www.w3.org/1999/xlink" xml:space="preserve" xmlns:serif="http://www.serif.com/" style="fill-rule:evenodd;clip-rule:evenodd;stroke-linejoin:round;stroke-miterlimit:2;">
    <path d="M74.081,89.319C74.046,87.994 74.132,86.667 74.338,85.354C74.6,83.616 75.968,82.253 77.713,81.996C82.29,81.326 86.339,78.663 88.766,74.724C91.194,70.786 91.753,65.974 90.292,61.583C88.83,57.195 85.501,53.677 81.198,51.973C81.121,51.943 81.047,51.906 80.977,51.863C79.293,50.85 78.595,48.765 79.331,46.95C80.062,45.125 82.007,44.106 83.92,44.537C83.994,44.554 84.066,44.576 84.137,44.603C88.551,46.331 92.34,49.348 95.006,53.266C97.673,57.184 99.095,61.816 99.079,66.556L99.078,66.571C99.051,71.87 97.254,77.01 93.967,81.172C90.921,85.028 86.763,87.838 82.07,89.228C82.109,90.36 82.292,91.483 82.616,92.568C83.258,94.701 82.563,97.016 80.856,98.445C79.146,99.871 76.746,100.143 74.763,99.138C71.379,97.421 66.98,94.535 63.965,90.18L62.931,90.18C58.322,90.184 53.814,88.841 49.959,86.317C46.106,83.789 43.074,80.194 41.234,75.968C40.354,73.939 41.278,71.586 43.308,70.699C45.333,69.818 47.695,70.743 48.576,72.773C49.791,75.572 51.795,77.953 54.347,79.628C56.895,81.3 59.879,82.191 62.93,82.191C62.93,82.191 66.211,82.191 66.205,82.191C67.679,82.185 69.035,82.985 69.74,84.284L69.721,84.249C70.85,86.202 72.331,87.92 74.081,89.319ZM24.275,61.202C14.722,58.774 6.866,51.926 3.172,42.739C-0.666,33.195 0.483,22.366 6.238,13.84C11.997,5.314 21.612,0.203 31.899,0.199L49.051,0.199C60.126,0.199 70.36,6.11 75.898,15.699C81.435,25.293 81.435,37.11 75.897,46.699C70.36,56.292 60.126,62.199 49.051,62.199L46.832,62.199C42.891,68.296 36.795,72.335 32.159,74.619C29.96,75.734 27.313,75.431 25.415,73.848C23.525,72.263 22.762,69.707 23.472,67.356C24.063,65.356 24.332,63.28 24.275,61.202ZM31.895,8.25C24.203,8.408 17.101,12.406 12.974,18.902C8.841,25.403 8.244,33.548 11.382,40.584C14.521,47.621 20.978,52.619 28.547,53.887C30.29,54.144 31.663,55.508 31.923,57.234C32.359,59.979 32.388,62.767 32.013,65.509C35.361,63.375 38.901,60.361 41.032,56.303C41.041,56.284 41.051,56.266 41.062,56.248C41.792,54.987 43.141,54.225 44.571,54.25L49.079,54.25C57.296,54.25 64.891,49.868 68.999,42.75C73.109,35.632 73.109,26.868 68.998,19.75C64.891,12.632 57.296,8.25 49.078,8.25L31.895,8.25Z" style="fill-rule:nonzero;"/>
    <path d="M80.006,79.377C79.175,79.671 78.311,79.887 77.423,80.017C75.54,80.294 73.95,81.431 73.06,83.017L71.315,83.017C70.218,81.255 68.289,80.184 66.201,80.191L62.93,80.191C61.337,80.191 59.766,79.913 58.284,79.377L80.006,79.377ZM88.054,71.736C87.778,72.403 87.448,73.052 87.064,73.675C86.692,74.278 86.277,74.846 85.824,75.377L52.526,75.377C51.662,74.359 50.948,73.214 50.41,71.976C50.375,71.895 50.338,71.815 50.299,71.736L88.054,71.736ZM88.874,64.095C89.093,65.302 89.146,66.527 89.037,67.736L45.005,67.736C46.033,66.644 47.007,65.466 47.895,64.199L49.051,64.199C49.932,64.199 50.808,64.164 51.676,64.095L88.874,64.095ZM38.641,56.454C37.799,57.804 36.788,59.014 35.69,60.095L34.232,60.095C34.177,59.034 34.066,57.974 33.898,56.92C33.875,56.763 33.845,56.607 33.809,56.454L38.641,56.454ZM84.653,56.454C85.791,57.494 86.75,58.724 87.482,60.095L64.99,60.095C66.869,59.059 68.646,57.84 70.293,56.454L84.653,56.454ZM60.593,48.813C57.228,51.019 53.241,52.25 49.079,52.25C49.079,52.25 44.571,52.25 44.571,52.25C44.019,52.24 43.473,52.311 42.948,52.454L30.601,52.454C30.055,52.187 29.462,52 28.837,51.909C25.98,51.43 23.292,50.361 20.921,48.813L60.593,48.813ZM77.051,48.813C77.135,50.153 77.67,51.443 78.582,52.454L74.295,52.454C75.258,51.311 76.148,50.095 76.956,48.813L77.051,48.813ZM67.588,41.172C67.484,41.366 67.377,41.559 67.267,41.75C66.635,42.844 65.913,43.868 65.114,44.813L16.383,44.813C15.438,43.7 14.603,42.481 13.898,41.172L67.588,41.172ZM69.957,33.532C69.823,34.759 69.58,35.978 69.229,37.172L12.25,37.172C11.896,35.976 11.652,34.758 11.517,33.532L69.957,33.532ZM69.386,25.891C69.702,27.088 69.91,28.307 70.011,29.532L11.458,29.532C11.557,28.304 11.765,27.086 12.079,25.891L69.386,25.891ZM65.573,18.25C66.192,19.035 66.758,19.869 67.266,20.749C67.483,21.125 67.687,21.506 67.879,21.891L13.581,21.891C13.905,21.238 14.265,20.598 14.662,19.975C15.042,19.376 15.45,18.801 15.883,18.25L65.573,18.25ZM20.04,14.25C23.452,11.772 27.584,10.342 31.921,10.25L49.078,10.25C53.583,10.25 57.882,11.692 61.41,14.25L20.04,14.25Z" style="fill:rgb(246,220,30);"/>
</svg>
