<?xml version="1.0" encoding="UTF-8" standalone="no"?>
<!DOCTYPE svg PUBLIC "-//W3C//DTD SVG 1.1//EN" "http://www.w3.org/Graphics/SVG/1.1/DTD/svg11.dtd">
<svg width="100%" height="100%" viewBox="0 0 875 222" version="1.1" xmlns="http://www.w3.org/2000/svg" xmlns:xlink="http://www.w3.org/1999/xlink" xml:space="preserve" xmlns:serif="http://www.serif.com/" style="fill-rule:evenodd;clip-rule:evenodd;stroke-linejoin:round;stroke-miterlimit:2;">
    <g transform="matrix(1,0,0,1,-647.094,-851.645)">
        <path d="M770.454,1063.06C757.263,1069.26 740.726,1072.35 720.844,1072.35C710.708,1072.35 701.277,1071.23 692.549,1068.97C687.629,1067.7 683.007,1065.73 678.684,1063.06L703.811,1063.06C707.671,1065.5 712.973,1066.72 719.717,1066.72C725.669,1066.72 730.603,1065.5 734.522,1063.06L770.454,1063.06ZM1094.58,1063.06C1081.94,1069.26 1066.42,1072.35 1047.99,1072.35C1034.48,1072.35 1022,1069.54 1010.55,1063.91C1010.02,1063.63 1009.5,1063.35 1009,1063.06L1032.73,1063.06C1035.79,1065.5 1039.84,1066.72 1044.9,1066.72C1051.09,1066.72 1055.78,1065.74 1058.97,1063.77C1059.34,1063.54 1059.7,1063.3 1060.05,1063.06L1094.58,1063.06ZM944.31,1063.06C932.429,1069.26 918.19,1072.35 901.592,1072.35C884.363,1072.35 869.907,1069.26 858.226,1063.06L887.859,1063.06C890.676,1065.31 894.315,1066.44 898.777,1066.44C904.969,1066.44 909.702,1065.31 912.976,1063.06L944.31,1063.06ZM696.242,1043.69C696.126,1044.7 696.068,1045.71 696.068,1046.73C696.068,1049.17 696.332,1051.39 696.86,1053.38L667.064,1053.38C664.431,1050.38 662.435,1047.16 661.078,1043.69L696.242,1043.69ZM794.455,1043.69C792.008,1047.18 789.055,1050.41 785.594,1053.38L742.695,1053.38C743.981,1050.55 745.05,1047.32 745.903,1043.69L794.455,1043.69ZM878.868,1043.69C879.292,1046.88 879.828,1049.35 880.477,1051.1C880.754,1051.84 881.064,1052.61 881.407,1053.38L844.72,1053.38C841.677,1050.48 838.932,1047.25 836.482,1043.69L878.868,1043.69ZM967.171,1043.69C964.62,1047.13 961.665,1050.36 958.306,1053.38L919.675,1053.38C920.069,1052.27 920.422,1051.09 920.737,1049.83C921.233,1047.89 921.674,1045.84 922.06,1043.69L967.171,1043.69ZM1026.51,1043.69C1026.19,1045.55 1026.03,1047.54 1026.03,1049.69C1026.03,1050.94 1026.19,1052.17 1026.49,1053.38L997.73,1053.38C996.943,1052.38 996.195,1051.34 995.486,1050.25C994.138,1048.18 993.027,1045.99 992.151,1043.69L1026.51,1043.69ZM1118.1,1043.69C1115.59,1047.18 1112.63,1050.41 1109.24,1053.38L1067.81,1053.38C1068.76,1050.84 1069.55,1047.62 1070.18,1043.69L1118.1,1043.69ZM708.727,1024.32C708.661,1027.9 708.27,1031.12 707.553,1034.01L658.972,1034.01C658.927,1033.28 658.905,1032.55 658.905,1031.81C658.905,1029.14 659.091,1026.64 659.463,1024.32L708.727,1024.32ZM802.432,1024.32C801.824,1027.71 800.91,1030.94 799.688,1034.01L747.561,1034.01C747.915,1030.98 748.162,1027.75 748.3,1024.32L802.432,1024.32ZM877.514,1024.32L877.521,1024.63C877.585,1027.4 877.738,1030.53 877.98,1034.01L830.935,1034.01C829.493,1030.96 828.214,1027.73 827.098,1024.32L877.514,1024.32ZM976.679,1024.32C975.721,1027.69 974.501,1030.92 973.018,1034.01L923.367,1034.01C923.66,1030.94 923.866,1027.71 923.987,1024.32L976.679,1024.32ZM1039.54,1024.32C1039.5,1027.86 1039.16,1031.09 1038.53,1034.01L989.92,1034.01C989.783,1032.61 989.715,1031.17 989.715,1029.7C989.715,1027.83 989.842,1026.04 990.097,1024.32L1039.54,1024.32ZM1126.9,1024.32C1126.09,1027.71 1125,1030.94 1123.64,1034.01L1071.12,1034.01C1071.32,1031.08 1071.48,1027.85 1071.6,1024.32L1126.9,1024.32ZM695.716,1004.95C698.066,1005.93 700.154,1007.23 701.98,1008.87C703.966,1010.64 705.513,1012.57 706.623,1014.64L662.607,1014.64C663.438,1013.1 664.409,1011.69 665.521,1010.41C667.591,1008.03 670.024,1006.21 672.817,1004.95L695.716,1004.95ZM802.606,1004.95C803.092,1007.78 803.335,1010.73 803.335,1013.79C803.335,1014.08 803.333,1014.36 803.33,1014.64L748.414,1014.64C748.362,1011.19 748.215,1007.96 747.972,1004.95L802.606,1004.95ZM877.381,1004.95C877.383,1008.61 877.392,1011.84 877.406,1014.64L824.471,1014.64C823.788,1011.53 823.218,1008.31 822.759,1004.95L877.381,1004.95ZM979.296,1004.95C979.279,1008.28 979.066,1011.51 978.659,1014.64L924.115,1014.64L924.114,1012.17C924.111,1010.73 924.109,1009.3 924.107,1007.86L924.099,1004.95L979.296,1004.95ZM1026.98,1004.95C1029.22,1005.87 1031.21,1007.08 1032.93,1008.58C1034.97,1010.36 1036.54,1012.38 1037.63,1014.64L993.341,1014.64C994.189,1013.14 995.185,1011.73 996.331,1010.41C998.401,1008.03 1000.84,1006.21 1003.66,1004.95L1026.98,1004.95ZM1128.75,1004.95C1128.78,1005.83 1128.8,1006.71 1128.8,1007.6C1128.8,1010.01 1128.69,1012.35 1128.49,1014.64L1071.84,1014.64C1071.89,1011.58 1071.92,1008.35 1071.92,1004.95L1128.75,1004.95ZM794.099,985.582C796.447,988.59 798.347,991.819 799.799,995.267L746.722,995.267C746.029,991.561 745.125,988.332 744.01,985.582L794.099,985.582ZM878.334,985.582C877.958,988.537 877.694,991.765 877.541,995.267L821.771,995.267C821.553,992.134 821.42,988.906 821.373,985.582L878.334,985.582ZM977.404,985.582C978.08,988.641 978.575,991.869 978.888,995.267L924.041,995.267C924.023,993.414 924.001,991.893 923.975,990.706C923.939,989.033 923.881,987.326 923.802,985.582L977.404,985.582ZM1125.02,985.582C1126.18,988.685 1127.07,991.914 1127.69,995.267L1071.8,995.267C1071.69,991.787 1071.5,988.559 1071.25,985.582L1125.02,985.582ZM762.719,966.212C771.161,968.598 778.236,971.827 783.943,975.897L738.09,975.897C734.732,971.915 730.579,968.686 725.631,966.212L762.719,966.212ZM884.57,966.212C882.698,969.184 881.253,972.413 880.235,975.897L821.456,975.897C821.554,972.596 821.725,969.367 821.966,966.212L876.823,966.212L876.817,967.056C876.999,966.772 877.184,966.49 877.369,966.212L884.57,966.212ZM969.217,966.212C971.269,969.146 973.008,972.374 974.434,975.897L923.174,975.897C922.794,971.681 922.217,968.452 921.441,966.212L969.217,966.212ZM1112.81,966.212C1113.18,966.582 1113.53,966.957 1113.87,967.338C1116.31,970.05 1118.45,972.903 1120.29,975.897L1070,975.897C1069.29,971.986 1068.38,968.759 1067.28,966.212L1112.81,966.212ZM725.627,966.212C718.871,967.713 710.707,968.933 701.136,969.872L700.637,966.212L725.627,966.212ZM1012.87,966.212C1012.1,966.667 1011.32,967.136 1010.55,967.619L1007.56,966.212L1012.87,966.212ZM775.087,946.842C769.407,950.713 762.554,953.942 754.531,956.527L727.136,956.527C729.472,955.146 731.363,953.588 732.809,951.853C733.99,950.436 735.036,948.766 735.947,946.842L775.087,946.842ZM877.346,946.842C877.19,949.96 877.069,953.188 876.981,956.527L822.962,956.527C823.395,953.21 823.915,949.983 824.523,946.842L877.346,946.842ZM940.414,946.842C947.887,948.874 954.422,952.103 960.017,956.527L915.775,956.527C913.218,954.537 909.617,953.542 904.971,953.542C900.856,953.542 897.151,954.537 893.856,956.527L885.553,956.527C890.356,952.103 895.853,948.875 902.045,946.842L940.414,946.842ZM1012.32,956.527L1005.76,956.527L1005.76,946.842L1012.57,946.842L1012.32,956.527ZM1018.8,956.527C1030.45,951.347 1042.43,948.756 1054.75,948.756C1069.39,948.756 1081.59,950.398 1091.35,953.683C1093.91,954.544 1096.31,955.492 1098.56,956.527L1055.25,956.527C1052.64,955.851 1049.65,955.513 1046.3,955.513C1043.15,955.513 1039.92,955.851 1036.6,956.527L1018.8,956.527ZM709.516,927.472C708.398,929.286 706.918,930.985 705.077,932.568C702.692,934.619 699.919,936.149 696.757,937.157L677.294,937.157C673.863,935.931 670.971,933.931 668.618,931.16C667.633,929.999 666.762,928.77 666.007,927.472L709.516,927.472ZM791.177,927.472C789.891,930.927 788.066,934.155 785.703,937.157L739.001,937.157C739.586,934.238 740.005,931.01 740.258,927.472L791.177,927.472ZM878.9,927.472C878.541,930.546 878.228,933.774 877.962,937.157L826.75,937.157C827.648,933.814 828.658,930.586 829.78,927.472L878.9,927.472ZM967.679,927.472C967.06,928.351 966.381,929.205 965.643,930.034C962.344,933.736 958.297,936.111 953.502,937.157L940.744,937.157C936.289,936.28 932.529,934.468 929.465,931.723C927.975,930.388 926.731,928.971 925.734,927.472L967.679,927.472ZM1012.82,937.157L1005.76,937.157L1005.76,927.472L1013.07,927.472L1012.82,937.157ZM711.092,908.102C711.749,910.995 712.09,914.224 712.114,917.787L662.673,917.787C662.413,916.082 662.283,914.299 662.283,912.437C662.283,910.962 662.363,909.517 662.523,908.102L711.092,908.102ZM793.169,908.102C793.377,910.039 793.481,912.047 793.481,914.127C793.481,915.369 793.429,916.589 793.325,917.787L740.549,917.787C740.535,914.34 740.446,911.112 740.282,908.102L793.169,908.102ZM882.259,908.102C881.521,911.081 880.858,914.308 880.27,917.787L833.804,917.787C835.414,914.399 837.181,911.171 839.104,908.102L882.259,908.102ZM972.403,908.102C972.495,909.245 972.541,910.408 972.541,911.593C972.541,913.748 972.331,915.812 971.911,917.787L922.713,917.787C922.709,917.646 922.708,917.506 922.708,917.364C922.708,914.02 922.982,910.933 923.53,908.102L972.403,908.102ZM1013.32,917.787L1005.76,917.787L1005.76,908.102L1013.57,908.102L1013.32,917.787ZM1113.34,908.102C1112.37,912.104 1111.34,915.332 1110.26,917.787L1062.1,917.787L1025.06,908.102L1113.34,908.102ZM700.753,888.732C700.257,890.383 700.01,891.998 700.01,893.574C700.01,895.276 700.115,896.89 700.325,898.417L665.058,898.417C666.532,894.968 668.594,891.74 671.243,888.732L700.753,888.732ZM785.964,888.732C788.129,891.634 789.826,894.862 791.056,898.417L739.398,898.417C738.895,894.71 738.227,891.481 737.394,888.732L785.964,888.732ZM890.197,888.732C888.806,890.813 887.536,893.131 886.389,895.686C885.998,896.556 885.62,897.467 885.253,898.417L846.127,898.417C849.1,894.863 852.273,891.634 855.647,888.732L890.197,888.732ZM964.976,888.732C967.305,891.711 969.096,894.94 970.349,898.417L935.178,898.417C935.499,896.628 935.659,894.732 935.659,892.73C935.659,891.312 935.563,889.979 935.371,888.732L964.976,888.732ZM1116.83,888.732C1116.35,892.222 1115.85,895.451 1115.33,898.417L1005.76,898.417L1005.76,888.732L1116.83,888.732ZM683.117,879.047C694.202,872.59 709.594,869.362 729.29,869.362C749.193,869.362 764.468,872.59 775.117,879.047L732.154,879.047C729.145,875.969 725.187,874.43 720.281,874.43C714.165,874.43 709.524,875.969 706.357,879.047L683.117,879.047ZM869.856,879.047C882.11,872.59 896.35,869.362 912.573,869.362C930.173,869.362 944.039,872.59 954.174,879.047L930.214,879.047C926.889,876.344 922.041,874.993 915.669,874.993C909.771,874.993 904.572,876.344 900.07,879.047L869.856,879.047ZM1005.76,879.047L1005.76,875.556L1010.27,872.177C1021.72,873.866 1039.08,875.884 1062.35,878.23C1065.23,878.521 1067.96,878.793 1070.54,879.047L1005.76,879.047ZM1110.66,879.047C1112.25,877.26 1113.6,874.219 1114.72,869.925L1118.94,870.488C1118.65,873.466 1118.35,876.319 1118.04,879.047L1110.66,879.047Z" style="fill:rgb(246,220,30);fill-rule:nonzero;"/>
    </g>
    <path d="M3.378,43.076C3.378,30.688 9.009,20.412 20.271,12.247C31.533,4.082 48.237,0 70.385,0C113.179,0 134.576,14.922 134.576,44.765C134.576,56.965 129.555,67.054 119.514,75.03C109.472,83.007 95.067,88.591 76.297,91.782L76.297,92.345C99.571,94.034 116.745,99.478 127.819,108.675C138.893,117.872 144.43,129.79 144.43,144.43C144.43,162.449 137.157,176.713 122.611,187.224C108.065,197.735 87.841,202.991 61.939,202.991C51.803,202.991 42.372,201.864 33.644,199.612C24.916,197.36 17.127,192.902 10.276,186.239C3.425,179.576 0,171.646 0,162.449C0,153.252 2.205,146.119 6.616,141.052C11.027,135.984 17.08,133.45 24.776,133.45C32.471,133.45 38.571,135.468 43.076,139.503C47.58,143.539 49.833,148.325 49.833,153.862C49.833,159.399 49.082,164.138 47.58,168.08L38.853,168.08C37.726,171.083 37.163,174.18 37.163,177.37C37.163,190.697 45.046,197.36 60.813,197.36C71.887,197.36 79.441,193.137 83.477,184.69C87.512,176.244 89.53,164.044 89.53,148.09C89.53,132.136 87.606,120.546 83.758,113.32C79.911,106.094 74.233,100.604 66.725,96.85C59.968,98.351 51.803,99.571 42.231,100.51L41.386,94.316C57.903,92.627 68.743,88.685 73.904,82.491C79.066,76.297 81.647,65.27 81.647,49.41C81.647,33.55 80.098,22.195 77.001,15.344C73.904,8.493 68.696,5.068 61.376,5.068C54.056,5.068 48.847,7.273 45.75,11.684C42.653,16.095 41.105,20.271 41.105,24.212C41.105,28.154 41.668,31.626 42.794,34.629L50.959,34.629C52.46,38.571 53.211,43.31 53.211,48.847C53.211,54.384 50.865,59.17 46.173,63.206C41.48,67.241 35.286,69.259 27.591,69.259C19.896,69.259 13.936,66.772 9.713,61.798C5.49,56.824 3.378,50.583 3.378,43.076ZM413.02,134.295C413.02,116.464 411.471,103.982 408.374,96.85C405.277,89.717 398.286,86.151 387.399,86.151C376.513,86.151 364.595,90.187 351.644,98.258L346.858,96.005L346.858,6.194L351.362,2.815C362.812,4.505 380.173,6.522 403.447,8.869C426.721,11.215 440.188,12.388 443.848,12.388C447.508,12.388 450.136,11.496 451.731,9.713C453.327,7.93 454.687,4.88 455.814,0.563L460.037,1.126C457.221,29.843 453.561,46.923 449.057,52.366C446.617,55.182 443.52,56.59 439.766,56.59C436.012,56.59 428.129,54.994 416.116,51.803L354.741,35.756L353.333,90.374C367.035,83.054 381.205,79.394 395.846,79.394C410.486,79.394 422.686,81.037 432.446,84.321C442.206,87.606 449.714,92.158 454.969,97.976C464.917,109.05 469.891,122.47 469.891,138.236C469.891,158.319 462.711,174.133 448.353,185.676C433.994,197.219 414.24,202.991 389.089,202.991C375.575,202.991 363.093,200.175 351.644,194.544C345.45,191.354 340.429,186.802 336.581,180.89C332.734,174.977 330.81,168.126 330.81,160.337C330.81,152.548 333.015,146.119 337.426,141.052C341.837,135.984 347.937,133.45 355.726,133.45C363.515,133.45 369.615,135.374 374.026,139.222C378.437,143.069 380.642,148.043 380.642,154.143C380.642,160.243 379.798,165.452 378.109,169.769L368.818,169.769C367.692,172.772 367.128,176.291 367.128,180.327C367.128,184.362 368.724,188.21 371.915,191.87C375.105,195.53 379.798,197.36 385.992,197.36C392.186,197.36 396.878,196.374 400.069,194.404C403.259,192.433 405.699,190.04 407.389,187.224C409.078,184.409 410.392,179.998 411.33,173.992C412.456,165.358 413.02,152.126 413.02,134.295ZM162.449,113.461C162.449,77.236 170.566,49.27 186.802,29.562C203.037,9.854 225.326,0 253.668,0C273,0 287.828,3.895 298.151,11.684C308.474,19.473 313.636,29.656 313.636,42.231C313.636,49.363 311.337,55.51 306.738,60.672C302.14,65.833 296.086,68.414 288.579,68.414C281.071,68.414 275.065,66.397 270.56,62.361C266.056,58.326 263.803,53.54 263.803,48.003C263.803,42.466 264.554,37.633 266.056,33.503L275.065,33.503C276.191,30.5 276.754,27.122 276.754,23.368C276.754,11.543 270.091,5.631 256.765,5.631C243.438,5.631 233.678,12.529 227.485,26.324C221.291,40.119 218.1,63.91 217.912,97.694C227.672,82.491 241.843,74.89 260.425,74.89C279.006,74.89 293.646,79.911 304.345,89.952C315.044,99.994 320.393,115.056 320.393,135.139C320.393,155.223 313.354,171.552 299.277,184.127C285.2,196.703 266.337,202.991 242.688,202.991C189.195,202.991 162.449,173.147 162.449,113.461ZM246.066,84.181C239.685,84.181 234.288,86.574 229.878,91.36C225.467,96.146 222.464,101.777 220.868,108.252C219.273,114.728 218.475,123.174 218.475,133.591C218.475,144.008 218.522,151.234 218.616,155.269C218.71,159.305 218.991,164.091 219.461,169.628C219.93,175.165 220.634,179.2 221.572,181.734C222.511,184.268 223.824,186.943 225.514,189.758C228.517,194.638 233.303,197.078 239.872,197.078C246.442,197.078 251.369,195.811 254.653,193.277C257.938,190.744 260.331,186.473 261.832,180.467C264.085,171.646 265.211,160.666 265.211,147.527C265.211,134.389 265.164,125.661 265.07,121.344C264.976,117.027 264.742,112.475 264.366,107.689C263.991,102.903 263.381,99.29 262.536,96.85C261.692,94.41 260.612,92.064 259.299,89.811C256.859,86.057 252.448,84.181 246.066,84.181Z" style="fill-rule:nonzero;"/>
    <path d="M630.437,193.188C641.145,193.188 648.581,188.825 653.737,182.282L643.326,173.656C639.46,177.423 635.89,179.109 631.429,179.109C625.579,179.109 621.316,176.134 619.828,170.285L655.72,170.285C655.819,168.996 655.819,167.608 655.819,166.418C655.819,150.654 647.292,137.07 628.752,137.07C612.888,137.07 601.684,149.464 601.684,165.129L601.684,165.327C601.684,181.984 613.582,193.188 630.437,193.188ZM530.596,193.089C543.286,193.089 554.292,182.48 554.292,165.03L554.292,164.832C554.292,147.679 543.286,137.07 530.496,137.07C522.465,137.07 517.905,140.937 514.236,145.399L514.236,119.521L495.398,119.521L495.398,191.899L514.236,191.899L514.236,185.355C517.706,189.42 522.465,193.089 530.596,193.089ZM809.101,193.089C816.141,193.089 821.197,190.412 824.866,186.347L824.866,191.899L843.506,191.899L843.506,161.064C843.506,153.529 841.82,147.977 837.755,144.011C833.492,139.747 826.948,137.467 817.331,137.467C808.11,137.467 801.665,139.152 795.617,141.631L799.484,154.917C804.243,153.033 808.606,151.942 814.257,151.942C821.495,151.942 824.965,155.115 824.965,160.667L824.965,161.56C821.891,160.469 817.033,159.478 812.076,159.478C799.484,159.478 791.056,165.228 791.056,176.333L791.056,176.531C791.056,187.239 798.889,193.089 809.101,193.089ZM748.423,193.089C756.454,193.089 761.114,189.222 764.782,184.76L764.782,191.899L783.62,191.899L783.62,119.521L764.782,119.521L764.782,144.804C761.213,140.739 756.454,137.07 748.324,137.07C735.633,137.07 724.727,147.679 724.727,165.129L724.727,165.327C724.727,182.48 735.732,193.089 748.423,193.089ZM562.422,191.899L581.26,191.899L581.26,175.242C581.26,162.849 586.812,157.197 596.628,157.197L598.214,157.197L598.214,137.368C589.291,136.971 584.334,141.73 581.26,149.067L581.26,138.26L562.422,138.26L562.422,191.899ZM663.85,191.899L682.688,191.899L682.688,162.849C682.688,156.999 686.059,153.826 690.62,153.826C695.081,153.826 698.155,156.999 698.155,162.849L698.155,191.899L716.993,191.899L716.993,156.801C716.993,144.606 710.152,137.07 698.75,137.07C691.116,137.07 686.158,141.334 682.688,145.795L682.688,138.26L663.85,138.26L663.85,191.899ZM815.843,181.29C811.977,181.29 809.2,179.109 809.2,175.44L809.2,175.242C809.2,171.276 812.373,168.599 817.826,168.599C820.602,168.599 823.279,169.194 825.163,169.987L825.163,172.466C825.163,177.82 821.296,181.29 815.843,181.29ZM524.746,177.324C518.698,177.324 513.84,172.268 513.84,165.129L513.84,164.931C513.84,157.891 518.698,152.835 524.746,152.835C530.893,152.835 535.751,157.891 535.751,164.931L535.751,165.129C535.751,172.367 530.893,177.324 524.746,177.324ZM754.173,177.324C748.125,177.324 743.168,172.268 743.168,165.129L743.168,164.931C743.168,157.792 748.125,152.835 754.173,152.835C760.221,152.835 765.08,157.891 765.08,164.931L765.08,165.129C765.08,172.268 760.221,177.324 754.173,177.324ZM619.531,160.667C620.522,154.818 623.893,150.951 628.851,150.951C634.007,150.951 637.477,154.719 638.171,160.667L619.531,160.667ZM517.111,105.589C525.142,105.589 529.802,101.722 533.471,97.26L533.471,104.399L552.309,104.399L552.309,32.021L533.471,32.021L533.471,57.304C529.902,53.239 525.142,49.57 517.012,49.57C504.321,49.57 493.415,60.179 493.415,77.629L493.415,77.827C493.415,94.98 504.421,105.589 517.111,105.589ZM700.039,105.589C707.078,105.589 712.135,102.912 715.803,98.847L715.803,104.399L734.443,104.399L734.443,73.564C734.443,66.029 732.758,60.477 728.693,56.511C724.429,52.247 717.885,49.967 708.268,49.967C699.047,49.967 692.603,51.652 686.555,54.131L690.422,67.417C695.181,65.533 699.543,64.442 705.195,64.442C712.432,64.442 715.902,67.615 715.902,73.167L715.902,74.06C712.829,72.969 707.971,71.978 703.013,71.978C690.422,71.978 681.994,77.728 681.994,88.833L681.994,89.031C681.994,99.739 689.827,105.589 700.039,105.589ZM577.79,105.589C584.829,105.589 589.886,102.912 593.554,98.847L593.554,104.399L612.194,104.399L612.194,73.564C612.194,66.029 610.509,60.477 606.443,56.511C602.18,52.247 595.636,49.967 586.019,49.967C576.798,49.967 570.354,51.652 564.306,54.131L568.173,67.417C572.932,65.533 577.294,64.442 582.946,64.442C590.183,64.442 593.653,67.615 593.653,73.167L593.653,74.06C590.58,72.969 585.722,71.978 580.764,71.978C568.173,71.978 559.745,77.728 559.745,88.833L559.745,89.031C559.745,99.739 567.578,105.589 577.79,105.589ZM621.811,104.399L640.649,104.399L640.649,75.349C640.649,69.499 644.02,66.326 648.581,66.326C653.043,66.326 656.116,69.499 656.116,75.349L656.116,104.399L674.955,104.399L674.955,69.301C674.955,57.106 668.113,49.57 656.711,49.57C649.077,49.57 644.12,53.834 640.649,58.295L640.649,50.76L621.811,50.76L621.811,104.399ZM706.781,93.79C702.914,93.79 700.138,91.609 700.138,87.94L700.138,87.742C700.138,83.776 703.311,81.099 708.764,81.099C711.54,81.099 714.217,81.694 716.101,82.487L716.101,84.966C716.101,90.32 712.234,93.79 706.781,93.79ZM584.532,93.79C580.665,93.79 577.889,91.609 577.889,87.94L577.889,87.742C577.889,83.776 581.062,81.099 586.515,81.099C589.291,81.099 591.968,81.694 593.852,82.487L593.852,84.966C593.852,90.32 589.985,93.79 584.532,93.79ZM522.862,89.824C516.814,89.824 511.857,84.768 511.857,77.629L511.857,77.431C511.857,70.292 516.814,65.335 522.862,65.335C528.91,65.335 533.768,70.391 533.768,77.431L533.768,77.629C533.768,84.768 528.91,89.824 522.862,89.824Z" style="fill-rule:nonzero;"/>
    <g transform="matrix(31.4558,0,0,1,-33971.6,-477.944)">
        <rect x="1095.64" y="689.362" width="11.152" height="9.685" style="fill:rgb(246,220,30);"/>
    </g>
    <g transform="matrix(1,0,0,1,-663.932,-497.315)">
        <circle cx="1528.51" cy="679.603" r="9.611" style="fill:rgb(246,220,30);"/>
    </g>
</svg>
