<?xml version="1.0" encoding="UTF-8" standalone="no"?>
<!DOCTYPE svg PUBLIC "-//W3C//DTD SVG 1.1//EN" "http://www.w3.org/Graphics/SVG/1.1/DTD/svg11.dtd">
<svg width="100%" height="100%" viewBox="0 0 176 28" version="1.1" xmlns="http://www.w3.org/2000/svg" xmlns:xlink="http://www.w3.org/1999/xlink" xml:space="preserve" xmlns:serif="http://www.serif.com/" style="fill-rule:evenodd;clip-rule:evenodd;stroke-linejoin:round;stroke-miterlimit:2;">
    <path d="M72.33,12.455C72.285,12.527 72.238,12.581 72.188,12.617C72.139,12.653 72.075,12.671 71.997,12.671C71.928,12.671 71.854,12.649 71.774,12.606C71.695,12.562 71.605,12.514 71.504,12.46C71.404,12.406 71.289,12.357 71.16,12.313C71.031,12.27 70.884,12.248 70.719,12.248C70.434,12.248 70.222,12.309 70.082,12.43C69.943,12.552 69.873,12.716 69.873,12.923C69.873,13.055 69.915,13.165 69.999,13.252C70.083,13.339 70.193,13.414 70.33,13.477C70.466,13.54 70.622,13.597 70.798,13.65C70.973,13.702 71.153,13.761 71.336,13.825C71.519,13.89 71.698,13.966 71.873,14.053C72.049,14.14 72.205,14.251 72.341,14.386C72.478,14.521 72.588,14.685 72.672,14.878C72.756,15.072 72.798,15.305 72.798,15.578C72.798,15.881 72.746,16.165 72.641,16.429C72.536,16.693 72.383,16.923 72.184,17.119C71.984,17.316 71.738,17.47 71.446,17.583C71.153,17.695 70.821,17.752 70.449,17.752C70.245,17.752 70.037,17.731 69.826,17.689C69.614,17.647 69.41,17.587 69.212,17.511C69.014,17.434 68.828,17.344 68.654,17.239C68.48,17.134 68.328,17.017 68.199,16.888L68.649,16.177C68.682,16.123 68.729,16.079 68.789,16.046C68.849,16.013 68.913,15.997 68.982,15.997C69.072,15.997 69.163,16.025 69.254,16.082C69.346,16.139 69.449,16.202 69.565,16.271C69.68,16.34 69.813,16.403 69.963,16.46C70.113,16.517 70.29,16.546 70.494,16.546C70.77,16.546 70.985,16.485 71.138,16.363C71.291,16.242 71.367,16.049 71.367,15.785C71.367,15.632 71.325,15.508 71.241,15.412C71.157,15.316 71.047,15.236 70.91,15.173C70.774,15.11 70.619,15.055 70.445,15.007C70.271,14.959 70.092,14.905 69.909,14.847C69.726,14.788 69.548,14.716 69.374,14.631C69.2,14.545 69.044,14.433 68.908,14.293C68.771,14.154 68.661,13.98 68.577,13.771C68.493,13.563 68.451,13.306 68.451,13C68.451,12.754 68.501,12.514 68.6,12.28C68.699,12.046 68.844,11.837 69.036,11.654C69.228,11.471 69.464,11.325 69.743,11.215C70.022,11.106 70.341,11.051 70.701,11.051C70.902,11.051 71.098,11.067 71.288,11.098C71.479,11.13 71.66,11.176 71.831,11.238C72.002,11.299 72.161,11.373 72.31,11.458C72.458,11.544 72.591,11.641 72.708,11.749L72.33,12.455ZM107.647,12.455C107.602,12.527 107.555,12.581 107.505,12.617C107.456,12.653 107.392,12.671 107.314,12.671C107.245,12.671 107.171,12.649 107.091,12.606C107.012,12.562 106.922,12.514 106.821,12.46C106.721,12.406 106.606,12.357 106.477,12.313C106.348,12.27 106.201,12.248 106.036,12.248C105.751,12.248 105.539,12.309 105.399,12.43C105.26,12.552 105.19,12.716 105.19,12.923C105.19,13.055 105.232,13.165 105.316,13.252C105.4,13.339 105.51,13.414 105.647,13.477C105.783,13.54 105.939,13.597 106.115,13.65C106.29,13.702 106.469,13.761 106.652,13.825C106.835,13.89 107.015,13.966 107.19,14.053C107.366,14.14 107.522,14.251 107.658,14.386C107.795,14.521 107.905,14.685 107.989,14.878C108.073,15.072 108.115,15.305 108.115,15.578C108.115,15.881 108.062,16.165 107.957,16.429C107.852,16.693 107.7,16.923 107.501,17.119C107.301,17.316 107.055,17.47 106.763,17.583C106.47,17.695 106.138,17.752 105.766,17.752C105.562,17.752 105.354,17.731 105.143,17.689C104.931,17.647 104.726,17.587 104.528,17.511C104.33,17.434 104.144,17.344 103.97,17.239C103.796,17.134 103.645,17.017 103.516,16.888L103.966,16.177C103.999,16.123 104.045,16.079 104.105,16.046C104.165,16.013 104.23,15.997 104.299,15.997C104.389,15.997 104.48,16.025 104.571,16.082C104.663,16.139 104.766,16.202 104.882,16.271C104.997,16.34 105.13,16.403 105.28,16.46C105.43,16.517 105.607,16.546 105.811,16.546C106.087,16.546 106.301,16.485 106.454,16.363C106.607,16.242 106.684,16.049 106.684,15.785C106.684,15.632 106.642,15.508 106.558,15.412C106.474,15.316 106.364,15.236 106.227,15.173C106.091,15.11 105.935,15.055 105.761,15.007C105.587,14.959 105.409,14.905 105.226,14.847C105.043,14.788 104.864,14.716 104.69,14.631C104.516,14.545 104.361,14.433 104.225,14.293C104.088,14.154 103.978,13.98 103.894,13.771C103.81,13.563 103.768,13.306 103.768,13C103.768,12.754 103.817,12.514 103.916,12.28C104.015,12.046 104.161,11.837 104.353,11.654C104.545,11.471 104.78,11.325 105.059,11.215C105.338,11.106 105.658,11.051 106.018,11.051C106.219,11.051 106.415,11.067 106.605,11.098C106.796,11.13 106.976,11.176 107.147,11.238C107.318,11.299 107.478,11.373 107.627,11.458C107.775,11.544 107.908,11.641 108.025,11.749L107.647,12.455ZM82.281,16.478C82.485,16.478 82.668,16.444 82.828,16.377C82.989,16.309 83.124,16.213 83.235,16.087C83.346,15.961 83.431,15.807 83.49,15.625C83.548,15.444 83.577,15.238 83.577,15.007L83.577,11.123L85.098,11.123L85.098,15.007C85.098,15.409 85.033,15.778 84.903,16.114C84.772,16.45 84.585,16.739 84.342,16.982C84.099,17.225 83.804,17.414 83.456,17.549C83.108,17.684 82.716,17.752 82.281,17.752C81.843,17.752 81.45,17.684 81.102,17.549C80.754,17.414 80.459,17.225 80.216,16.982C79.973,16.739 79.787,16.45 79.658,16.114C79.529,15.778 79.464,15.409 79.464,15.007L79.464,11.123L80.985,11.123L80.985,15.002C80.985,15.233 81.015,15.439 81.073,15.621C81.132,15.802 81.216,15.957 81.327,16.084C81.438,16.212 81.574,16.309 81.735,16.377C81.895,16.444 82.077,16.478 82.281,16.478ZM116.536,17.68L115.006,17.68L115.006,11.123L116.536,11.123L116.536,17.68ZM138.095,17.68L136.565,17.68L136.565,11.123L138.095,11.123L138.095,17.68ZM92.089,17.68L92.089,11.123L94.501,11.123C94.954,11.123 95.339,11.165 95.657,11.249C95.975,11.333 96.235,11.452 96.436,11.605C96.637,11.758 96.783,11.944 96.874,12.163C96.966,12.382 97.012,12.626 97.012,12.896C97.012,13.043 96.991,13.185 96.949,13.321C96.907,13.458 96.841,13.586 96.751,13.706C96.661,13.826 96.545,13.935 96.404,14.032C96.263,14.13 96.094,14.215 95.896,14.287C96.328,14.392 96.647,14.562 96.854,14.797C97.061,15.033 97.165,15.335 97.165,15.704C97.165,15.983 97.111,16.243 97.003,16.483C96.895,16.723 96.736,16.932 96.528,17.11C96.319,17.289 96.062,17.428 95.756,17.529C95.45,17.629 95.101,17.68 94.708,17.68L92.089,17.68ZM159.464,15.254L159.464,17.68L157.943,17.68L157.943,11.123L160.076,11.123C160.55,11.123 160.955,11.172 161.289,11.269C161.624,11.367 161.897,11.503 162.108,11.677C162.32,11.851 162.473,12.056 162.569,12.293C162.665,12.53 162.713,12.788 162.713,13.067C162.713,13.28 162.685,13.481 162.628,13.67C162.571,13.859 162.486,14.034 162.374,14.194C162.261,14.355 162.123,14.498 161.96,14.624C161.796,14.75 161.608,14.854 161.395,14.935C161.497,14.986 161.592,15.049 161.681,15.124C161.769,15.199 161.846,15.29 161.912,15.398L163.307,17.68L161.93,17.68C161.675,17.68 161.492,17.584 161.381,17.392L160.292,15.488C160.244,15.404 160.188,15.344 160.124,15.308C160.059,15.272 159.968,15.254 159.851,15.254L159.464,15.254ZM129.7,14.399C129.7,14.873 129.619,15.31 129.455,15.711C129.292,16.111 129.061,16.458 128.765,16.75C128.467,17.043 128.11,17.271 127.691,17.434C127.273,17.598 126.808,17.68 126.298,17.68L123.751,17.68L123.751,11.123L126.298,11.123C126.808,11.123 127.273,11.206 127.691,11.371C128.11,11.536 128.467,11.764 128.765,12.055C129.061,12.346 129.292,12.691 129.455,13.092C129.619,13.492 129.7,13.928 129.7,14.399ZM173.196,15.187L173.196,17.68L171.675,17.68L171.675,15.187L169.299,11.123L170.64,11.123C170.772,11.123 170.877,11.154 170.955,11.215C171.033,11.277 171.096,11.356 171.144,11.452L172.071,13.36C172.146,13.513 172.215,13.654 172.278,13.783C172.341,13.912 172.396,14.039 172.444,14.165C172.489,14.036 172.543,13.907 172.606,13.778C172.669,13.649 172.737,13.51 172.809,13.36L173.727,11.452C173.745,11.413 173.769,11.374 173.801,11.335C173.832,11.296 173.868,11.26 173.909,11.229C173.949,11.197 173.996,11.172 174.048,11.152C174.101,11.133 174.159,11.123 174.222,11.123L175.572,11.123L173.196,15.187ZM151.412,17.68L150.233,17.68C150.101,17.68 149.992,17.649 149.907,17.587C149.821,17.526 149.762,17.447 149.729,17.351L149.342,16.208L146.849,16.208L146.462,17.351C146.432,17.435 146.374,17.511 146.287,17.578C146.2,17.646 146.093,17.68 145.967,17.68L144.779,17.68L147.317,11.123L148.874,11.123L151.412,17.68ZM93.61,14.899L93.61,16.532L94.681,16.532C94.882,16.532 95.046,16.507 95.173,16.456C95.301,16.405 95.401,16.339 95.473,16.258C95.545,16.177 95.594,16.085 95.621,15.983C95.648,15.881 95.662,15.778 95.662,15.673C95.662,15.553 95.646,15.445 95.614,15.349C95.583,15.253 95.529,15.172 95.452,15.106C95.376,15.04 95.275,14.989 95.149,14.953C95.023,14.917 94.864,14.899 94.672,14.899L93.61,14.899ZM128.143,14.399C128.143,14.075 128.101,13.783 128.017,13.522C127.933,13.261 127.813,13.039 127.655,12.858C127.498,12.676 127.305,12.537 127.077,12.439C126.849,12.342 126.589,12.293 126.298,12.293L125.281,12.293L125.281,16.51L126.298,16.51C126.589,16.51 126.849,16.461 127.077,16.363C127.305,16.266 127.498,16.126 127.655,15.945C127.813,15.763 127.933,15.542 128.017,15.281C128.101,15.02 128.143,14.726 128.143,14.399ZM147.2,15.173L148.991,15.173L148.388,13.378C148.349,13.264 148.303,13.129 148.251,12.975C148.198,12.82 148.147,12.653 148.096,12.473C148.048,12.656 147.998,12.826 147.947,12.982C147.896,13.138 147.848,13.273 147.803,13.387L147.2,15.173ZM159.464,14.206L160.076,14.206C160.283,14.206 160.46,14.179 160.605,14.127C160.751,14.074 160.87,14.002 160.963,13.909C161.056,13.816 161.123,13.707 161.165,13.582C161.207,13.458 161.228,13.324 161.228,13.18C161.228,12.892 161.135,12.667 160.947,12.505C160.76,12.343 160.469,12.262 160.076,12.262L159.464,12.262L159.464,14.206ZM93.61,13.882L94.402,13.882C94.57,13.882 94.721,13.87 94.856,13.846C94.991,13.822 95.106,13.78 95.2,13.72C95.295,13.66 95.367,13.577 95.416,13.472C95.466,13.367 95.491,13.235 95.491,13.076C95.491,12.92 95.471,12.79 95.432,12.687C95.393,12.583 95.333,12.5 95.252,12.437C95.171,12.374 95.068,12.329 94.944,12.302C94.819,12.275 94.672,12.262 94.501,12.262L93.61,12.262L93.61,13.882Z" style="fill:white;fill-rule:nonzero;"/>
    <g transform="matrix(9,0,0,9,-0.009,17.6796)">
        <path d="M0.738,-0L0.607,-0C0.592,-0 0.58,-0.003 0.571,-0.01C0.561,-0.017 0.555,-0.026 0.551,-0.037L0.508,-0.164L0.231,-0.164L0.188,-0.037C0.185,-0.027 0.178,-0.019 0.169,-0.011C0.159,-0.004 0.147,-0 0.133,-0L0.001,-0L0.283,-0.729L0.456,-0.729L0.738,-0ZM0.27,-0.279L0.469,-0.279L0.402,-0.478C0.398,-0.491 0.393,-0.506 0.387,-0.523C0.381,-0.54 0.375,-0.559 0.37,-0.579C0.364,-0.558 0.359,-0.539 0.353,-0.522C0.347,-0.505 0.342,-0.49 0.337,-0.477L0.27,-0.279Z" style="fill:white;fill-rule:nonzero;"/>
    </g>
    <g transform="matrix(1,0,0,1,-0.1925,2.71479)">
        <clipPath id="_clip1">
            <path d="M36.824,15.732L23,6.486L23,15.732L24.923,17.014L24.923,10.56L36.824,18.479L48.725,10.56L48.725,17.014L50.648,15.732L50.648,6.486L36.824,15.732Z"/>
        </clipPath>
        <g clip-path="url(#_clip1)">
            <rect x="18" y="1.486" width="37.648" height="21.993" style="fill:white;"/>
        </g>
    </g>
    <g transform="matrix(1,0,0,1,-0.1925,-18.2042)">
        <clipPath id="_clip2">
            <path d="M36.824,18.204L24.511,26.398L26.433,27.68L36.824,20.768L47.169,27.68L49.092,26.398L36.824,18.204Z"/>
        </clipPath>
        <g clip-path="url(#_clip2)">
            <rect x="19.511" y="13.204" width="34.581" height="19.475" style="fill:white;"/>
        </g>
    </g>
    <g transform="matrix(1,0,0,1,-0.1925,18.4155)">
        <clipPath id="_clip3">
            <path d="M48.725,0.81L49.092,1.085L48.725,1.359L48.725,0.81ZM24.923,1.313L24.556,1.039L24.923,0.764L24.923,1.313ZM36.824,9.232L26.845,2.595L26.845,0.032L36.824,6.669L46.803,0.032L46.803,2.595L36.824,9.232Z"/>
        </clipPath>
        <g clip-path="url(#_clip3)">
            <rect x="19.556" y="-4.968" width="34.535" height="19.201" style="fill:white;"/>
        </g>
    </g>
</svg>
